<svg width="45" height="45" viewBox="0 0 45 45" fill="none" xmlns="http://www.w3.org/2000/svg">
<g id="contract 1">
<path id="Vector" d="M30.9376 2.8125H10.3126C7.72379 2.8125 5.62512 4.91117 5.62512 7.5V37.5C5.62512 40.0888 7.72379 42.1875 10.3126 42.1875H30.9376C33.5265 42.1875 35.6251 40.0888 35.6251 37.5V7.5C35.6251 4.91117 33.5265 2.8125 30.9376 2.8125Z" fill="url(#paint0_linear_41_366)"/>
<path id="Vector_2" d="M19.6876 10.3125H11.2501C10.7317 10.3125 10.3126 9.8925 10.3126 9.375C10.3126 8.8575 10.7317 8.4375 11.2501 8.4375H19.6876C20.2061 8.4375 20.6251 8.8575 20.6251 9.375C20.6251 9.8925 20.2061 10.3125 19.6876 10.3125Z" fill="url(#paint1_linear_41_366)"/>
<path id="Vector_3" d="M28.397 15.9375H11.2501C10.7317 15.9375 10.3126 15.5175 10.3126 15C10.3126 14.4825 10.7317 14.0625 11.2501 14.0625H28.397C28.9154 14.0625 29.3345 14.4825 29.3345 15C29.3345 15.5175 28.9154 15.9375 28.397 15.9375Z" fill="url(#paint2_linear_41_366)"/>
<path id="Vector_4" d="M25.1439 21.5625H11.2501C10.7317 21.5625 10.3126 21.1425 10.3126 20.625C10.3126 20.1075 10.7317 19.6875 11.2501 19.6875H25.1439C25.6623 19.6875 26.0814 20.1075 26.0814 20.625C26.0814 21.1425 25.6623 21.5625 25.1439 21.5625Z" fill="url(#paint3_linear_41_366)"/>
<path id="Vector_5" d="M21.9001 27.1875H11.2501C10.7317 27.1875 10.3126 26.7675 10.3126 26.25C10.3126 25.7325 10.7317 25.3125 11.2501 25.3125H21.9001C22.4186 25.3125 22.8376 25.7325 22.8376 26.25C22.8376 26.7675 22.4186 27.1875 21.9001 27.1875Z" fill="url(#paint4_linear_41_366)"/>
<path id="Vector_6" d="M11.2501 36.5625C11.1339 36.5625 11.0167 36.5409 10.9023 36.495C10.4214 36.3028 10.187 35.7572 10.3792 35.2762L11.3823 32.7638C11.6739 32.0456 12.3564 31.5834 13.1242 31.5834C13.892 31.5834 14.5754 32.0456 14.8642 32.76L15.2092 33.6225L15.3151 33.4641C15.6536 32.9419 16.2385 32.6241 16.8732 32.6241C17.5079 32.6241 18.0929 32.9409 18.4379 33.4734L19.2489 34.6866H20.0232C20.5417 34.6866 20.9607 35.1066 20.9607 35.6241C20.9607 36.1416 20.5417 36.5616 20.0232 36.5616H18.7482C18.4351 36.5616 18.1426 36.405 17.9692 36.1453L16.8723 34.5047L16.2751 35.4037C15.9657 35.8472 15.4661 36.0806 14.9429 36.0187C14.431 35.9606 13.9932 35.6278 13.8001 35.1506L13.1232 33.4603L12.1182 35.9728C11.972 36.3394 11.6195 36.5625 11.2473 36.5625H11.2501Z" fill="url(#paint5_linear_41_366)"/>
<path id="Vector_7" d="M27.3667 34.8422L24.8823 36.4819C24.1089 36.9928 23.0842 36.4012 23.1395 35.4759L23.3176 32.505C23.3598 31.8075 23.5632 31.1297 23.912 30.525L36.076 9.45654C36.6976 8.38029 38.0739 8.01185 39.1492 8.63342L40.1232 9.19592C41.1995 9.81748 41.5679 11.1937 40.9464 12.269L28.7823 33.3375C28.4326 33.9422 27.9479 34.4578 27.3648 34.8431L27.3667 34.8422Z" fill="#2296AC"/>
<path id="Vector_8" opacity="0.5" d="M34.3893 12.3788L35.3268 10.755L40.1981 13.5675L39.2606 15.1913L34.3893 12.3788Z" fill="#116A7B"/>
</g>
<defs>
<linearGradient id="paint0_linear_41_366" x1="6.72856" y1="6.13312" x2="35.7498" y2="40.3134" gradientUnits="userSpaceOnUse">
<stop stop-color="#EDF1F2"/>
<stop offset="0.316" stop-color="#E8ECED"/>
<stop offset="0.644" stop-color="#DCE0E1"/>
<stop offset="0.976" stop-color="#C7CCCD"/>
<stop offset="1" stop-color="#C6CBCC"/>
</linearGradient>
<linearGradient id="paint1_linear_41_366" x1="10.847" y1="4.2225" x2="29.5492" y2="25.0744" gradientUnits="userSpaceOnUse">
<stop stop-color="#C6CBCC"/>
<stop offset="1" stop-color="#9FA5A6"/>
</linearGradient>
<linearGradient id="paint2_linear_41_366" x1="10.4645" y1="4.56562" x2="29.1667" y2="25.4175" gradientUnits="userSpaceOnUse">
<stop stop-color="#C6CBCC"/>
<stop offset="1" stop-color="#9FA5A6"/>
</linearGradient>
<linearGradient id="paint3_linear_41_366" x1="6.767" y1="7.88156" x2="25.4692" y2="28.7334" gradientUnits="userSpaceOnUse">
<stop stop-color="#C6CBCC"/>
<stop offset="1" stop-color="#9FA5A6"/>
</linearGradient>
<linearGradient id="paint4_linear_41_366" x1="3.07231" y1="11.1956" x2="21.7745" y2="32.0475" gradientUnits="userSpaceOnUse">
<stop stop-color="#C6CBCC"/>
<stop offset="1" stop-color="#9FA5A6"/>
</linearGradient>
<linearGradient id="paint5_linear_41_366" x1="9.57199" y1="31.9284" x2="19.9979" y2="37.9481" gradientUnits="userSpaceOnUse">
<stop stop-color="#9FA5A6"/>
<stop offset="1" stop-color="#6F7273"/>
</linearGradient>
</defs>
</svg>
