<svg width="38" height="38" viewBox="0 0 38 38" fill="none" xmlns="http://www.w3.org/2000/svg">
<g id="Group 8">
<g id="Vector" filter="url(#filter0_d_22_442)">
<path d="M19.0001 34C28.389 34 36.0001 26.3888 36.0001 17C36.0001 7.61116 28.389 0 19.0001 0C9.61128 0 2.00012 7.61116 2.00012 17C2.00012 26.3888 9.61128 34 19.0001 34Z" fill="white"/>
</g>
<path id="Vector_2" d="M19.0001 34C28.389 34 36.0001 26.3888 36.0001 17C36.0001 7.61116 28.389 0 19.0001 0C9.61128 0 2.00012 7.61116 2.00012 17C2.00012 26.3888 9.61128 34 19.0001 34Z" fill="#F0F0F0"/>
<g id="Group">
<path id="Vector_3" d="M5.51434 6.65009C4.17897 8.38747 3.17206 10.39 2.58575 12.5654H11.4296L5.51434 6.65009Z" fill="#0052B4"/>
<path id="Vector_4" d="M35.4145 12.5654C34.8282 10.3901 33.8212 8.38759 32.4859 6.65021L26.5708 12.5654H35.4145Z" fill="#0052B4"/>
<path id="Vector_5" d="M2.58575 21.4349C3.17212 23.6103 4.17904 25.6128 5.51434 27.3501L11.4294 21.4349H2.58575Z" fill="#0052B4"/>
<path id="Vector_6" d="M29.3501 3.51434C27.6127 2.17898 25.6103 1.17206 23.4349 0.585693V9.42948L29.3501 3.51434Z" fill="#0052B4"/>
<path id="Vector_7" d="M8.65015 30.4857C10.3875 31.8211 12.39 32.828 14.5654 33.4144V24.5707L8.65015 30.4857Z" fill="#0052B4"/>
<path id="Vector_8" d="M14.5653 0.585693C12.3899 1.17206 10.3875 2.17898 8.65015 3.51428L14.5653 9.42941V0.585693Z" fill="#0052B4"/>
<path id="Vector_9" d="M23.4349 33.4144C25.6103 32.828 27.6128 31.8211 29.3501 30.4858L23.4349 24.5707V33.4144Z" fill="#0052B4"/>
<path id="Vector_10" d="M26.5708 21.4349L32.4859 27.3501C33.8212 25.6128 34.8282 23.6103 35.4145 21.4349H26.5708Z" fill="#0052B4"/>
</g>
<g id="Group_2">
<path id="Vector_11" d="M35.8562 14.7826H21.2176H21.2176V0.143902C20.4917 0.0494063 19.7516 0 19.0001 0C18.2485 0 17.5086 0.0494063 16.7828 0.143902V14.7825V14.7826H2.14402C2.04953 15.5084 2.00012 16.2485 2.00012 17C2.00012 17.7517 2.04953 18.4916 2.14402 19.2174H16.7826H16.7827V33.8561C17.5086 33.9506 18.2485 34 19.0001 34C19.7516 34 20.4917 33.9507 21.2175 33.8561V19.2175V19.2174H35.8562C35.9507 18.4916 36.0001 17.7517 36.0001 17C36.0001 16.2485 35.9507 15.5084 35.8562 14.7826Z" fill="#D80027"/>
<path id="Vector_12" d="M23.4349 21.4349L31.0209 29.0209C31.3698 28.6721 31.7026 28.3075 32.0202 27.9295L25.5255 21.4348H23.4349V21.4349Z" fill="#D80027"/>
<path id="Vector_13" d="M14.5653 21.4349H14.5652L6.97925 29.0208C7.32801 29.3697 7.69265 29.7025 8.07063 30.0201L14.5653 23.5253V21.4349Z" fill="#D80027"/>
<path id="Vector_14" d="M14.5653 12.5653V12.5652L6.97932 4.97913C6.63042 5.32789 6.2976 5.69253 5.98004 6.07051L12.4748 12.5652L14.5653 12.5653Z" fill="#D80027"/>
<path id="Vector_15" d="M23.4349 12.5653L31.021 4.9792C30.6722 4.6303 30.3076 4.29747 29.9296 3.97998L23.4349 10.4747V12.5653Z" fill="#D80027"/>
</g>
</g>
<defs>
<filter id="filter0_d_22_442" x="0.00012207" y="0" width="38" height="38" filterUnits="userSpaceOnUse" color-interpolation-filters="sRGB">
<feFlood flood-opacity="0" result="BackgroundImageFix"/>
<feColorMatrix in="SourceAlpha" type="matrix" values="0 0 0 0 0 0 0 0 0 0 0 0 0 0 0 0 0 0 127 0" result="hardAlpha"/>
<feOffset dy="2"/>
<feGaussianBlur stdDeviation="1"/>
<feComposite in2="hardAlpha" operator="out"/>
<feColorMatrix type="matrix" values="0 0 0 0 0 0 0 0 0 0 0 0 0 0 0 0 0 0 0.1 0"/>
<feBlend mode="normal" in2="BackgroundImageFix" result="effect1_dropShadow_22_442"/>
<feBlend mode="normal" in="SourceGraphic" in2="effect1_dropShadow_22_442" result="shape"/>
</filter>
</defs>
</svg>
