<svg width="90" height="90" viewBox="0 0 90 90" fill="none" xmlns="http://www.w3.org/2000/svg">
<g id="insurance 1">
<g id="Group">
<g id="Group_2">
<g id="Group_3">
<path id="Vector" d="M76.6407 14.3474C62.0462 14.3474 46.9212 0.819142 46.7715 0.683615C45.7662 -0.227811 44.2339 -0.227811 43.2288 0.683615C43.0781 0.820197 27.9929 14.3474 13.3595 14.3474C11.9033 14.3474 10.7228 15.528 10.7228 16.9842V48.5612C10.7228 74.1415 29.7486 84.3632 44.0597 89.8267C44.3626 89.9423 44.6813 90 45.0001 90C45.319 90 45.6377 89.9422 45.9406 89.8267C66.0067 82.1661 79.2775 70.2167 79.2775 48.5612V16.9842C79.2775 15.528 78.0969 14.3474 76.6407 14.3474Z" fill="#116A7B"/>
</g>
</g>
<g id="Group_4">
<g id="Group_5">
<path id="Vector_2" d="M45.0001 26.543C34.8229 26.543 26.5431 34.8228 26.5431 45C26.5431 55.1772 34.8229 63.457 45.0001 63.457C55.1773 63.457 63.4572 55.1772 63.4572 45C63.4572 34.8228 55.1773 26.543 45.0001 26.543ZM52.1379 44.2276L44.2277 52.1378C43.7131 52.6526 43.0382 52.9102 42.3634 52.9102C41.6886 52.9102 41.0138 52.6528 40.4991 52.1378L37.8623 49.5011C36.8326 48.4713 36.8326 46.8019 37.8623 45.7722C38.8919 44.7425 40.5615 44.7425 41.5912 45.7722L42.3636 46.5444L48.4094 40.4988C49.4389 39.469 51.1085 39.469 52.1382 40.4988C53.1678 41.5285 53.1678 43.1979 52.1379 44.2276Z" fill="url(#paint0_linear_50_1103)"/>
</g>
</g>
</g>
</g>
<defs>
<linearGradient id="paint0_linear_50_1103" x1="45.0001" y1="63.457" x2="45.0001" y2="26.543" gradientUnits="userSpaceOnUse">
<stop stop-color="#C3FFE8"/>
<stop offset="0.9973" stop-color="#F0FFF4"/>
</linearGradient>
</defs>
</svg>
