<svg width="78" height="78" viewBox="0 0 78 78" fill="none" xmlns="http://www.w3.org/2000/svg">
<g id="like 1" clip-path="url(#clip0_22_445)">
<path id="Vector" fill-rule="evenodd" clip-rule="evenodd" d="M39.0001 78C60.4801 78 78.0001 60.48 78.0001 39C78.0001 17.52 60.4801 0 39.0001 0C17.5201 0 0.00012207 17.52 0.00012207 39C0.00012207 60.48 17.5201 78 39.0001 78Z" fill="#2196F3"/>
<path id="Vector_2" d="M19.2439 31.4523H27.8824V56.2916C27.638 57.5076 26.5137 58.4182 25.2432 58.4182H19.2439C17.7891 58.4182 16.6056 57.2337 16.6056 55.779V34.0906C16.6056 32.636 17.7891 31.4523 19.2439 31.4523ZM60.322 34.3433C58.9728 32.6137 56.5474 31.4524 54.2866 31.4524H41.5615C41.3589 31.4524 41.1681 31.3571 41.0461 31.196C40.923 31.035 40.8832 30.8249 40.9378 30.6296L42.5461 24.8616C44.0942 19.3111 42.051 17.7619 37.3528 15.7631C36.9133 15.5762 36.4857 15.5735 36.0443 15.7539C35.603 15.9333 35.3003 16.2342 35.117 16.6746L29.1779 30.9331V55.9243L35.1624 58.4182H51.0107C55.6979 58.4182 57.4525 53.4405 57.9892 51.301L61.2659 38.2529C61.6897 36.5642 60.9865 35.1946 60.322 34.3433Z" fill="white"/>
</g>
<defs>
<clipPath id="clip0_22_445">
<rect width="78" height="78" fill="white"/>
</clipPath>
</defs>
</svg>
