<svg width="89" height="99" viewBox="0 0 89 99" fill="none" xmlns="http://www.w3.org/2000/svg">
<g id="Group 2">
<path id="Vector" d="M26.0444 20.25C26.5324 23.4963 24.7077 27.6507 22.6708 30.7739C20.7528 33.7189 18.3637 36.3584 15.9534 38.9045C10.7466 44.4083 5.84107 50.816 3.77448 58.2252C2.21712 63.8096 2.75604 70.0179 4.86507 75.3987C5.81137 77.8132 7.14807 80.1641 9.22739 81.713C10.772 82.863 12.6901 83.5165 14.6166 83.5419C17.7611 83.5844 20.7273 82.0228 23.1673 80.0453C24.7671 78.7468 26.2778 77.1342 26.664 75.1101C26.7658 74.5754 26.7828 74.0025 26.5409 73.5145C26.1802 72.7889 25.3527 72.4367 24.5719 72.233C21.7754 71.5158 18.4952 71.8935 16.331 69.9797C14.9179 68.7279 14.3663 66.7801 14.0735 64.9172C13.0041 58.0894 14.7482 50.7184 19.3354 45.5456C20.0101 44.786 20.774 44.0518 21.733 43.7039C23.5408 43.0461 25.531 43.9033 27.1774 44.9048C27.4193 45.0491 27.6697 45.2188 27.7715 45.4819C27.8479 45.6856 27.8182 45.9105 27.7843 46.1269C27.4745 48.1214 26.9525 50.0861 26.2396 51.9745C25.637 50.0861 23.0952 49.4199 21.2662 50.188C19.4373 50.956 18.2279 52.7044 17.2816 54.4442C16.6069 55.6833 16.0043 56.9903 15.8176 58.3864C15.6308 59.7825 15.9024 61.2975 16.819 62.3668C18.1048 63.8733 20.2817 64.1873 22.255 64.357C24.2282 64.531 26.3924 64.7474 27.7885 66.1563C28.8112 67.1875 29.2143 68.6769 29.4138 70.1155C30.1776 75.6999 28.2765 81.5475 24.5337 85.7613C22.1743 88.4177 18.9578 90.5098 15.4102 90.7305C13.2757 90.8662 11.103 90.3061 9.29953 89.1519C0.320267 83.4316 -0.842455 68.1507 1.63575 58.8829C3.49866 51.9108 7.55969 45.6814 12.3039 40.326L12.427 40.186C15.1301 37.1519 18.0539 34.2239 20.4303 30.8715C22.7302 27.6252 24.6059 23.9546 26.0487 20.25" fill="#116A7B"/>
<path id="Vector_2" d="M74.0977 49.8994C73.8558 46.8526 72.744 43.9585 70.5247 41.8325C68.8782 40.2539 67.4948 39.4646 66.383 39.4646C65.1651 39.4646 64.2612 40.708 63.6672 43.1904C63.2513 44.8963 63.0476 46.721 63.0476 48.6603C63.0476 51.4271 64.3291 52.8147 66.888 52.8147C68.1016 52.8147 69.3322 52.1018 70.5756 50.6802C71.3522 51.0706 71.7383 51.6265 71.7383 52.3522C71.7383 52.8699 71.5431 53.5446 71.1569 54.3721C70.0876 56.7442 59.9414 66.0248 57.3104 66.8777C56.6823 67.0814 56.0288 67.2002 55.3669 67.2087C55.3371 67.2087 55.3117 67.2087 55.282 67.2087C54.2466 67.2087 53.4827 67.0687 52.9905 66.7801C53.7925 65.4094 54.1914 64.0897 54.1914 62.8209C54.1914 61.4248 53.6482 58.4756 53.6482 58.4756C53.5506 58.4628 52.9438 59.6595 52.7783 59.9396C52.4728 60.4658 52.1672 60.9877 51.8405 61.5012C51.2125 62.4942 50.508 63.5253 49.6084 64.2849C47.6012 65.9781 45.0339 67.7858 42.6194 68.7915C41.5288 66.0545 39.4749 63.9497 36.3814 63.9497C35.1423 63.9497 34.1705 64.9214 33.4746 66.8692C32.9314 68.3502 32.6598 69.8694 32.6598 71.4267C32.6598 73.4509 32.8678 74.7749 33.2836 75.3987C33.8565 76.2304 35.0871 76.6463 36.984 76.6463C37.7605 76.6463 39.1906 76.3365 41.2699 75.7127C41.3675 76.1286 41.4184 76.6208 41.4184 77.1894C41.4184 78.5389 40.3703 80.7158 38.274 83.7202C36.7463 85.8971 35.4139 87.5181 34.2766 88.579C32.0488 90.6541 29.2438 92.4279 25.8575 93.9046C22.3142 95.4068 19.0891 96.1579 16.195 96.1579C15.236 96.1579 13.9714 96.0391 12.3928 95.81C10.5045 95.5256 8.89617 95.3517 8.25116 95.3007L8.39544 95.4196C8.39544 95.4196 17.85 98.2924 22.4839 98.2924C27.1178 98.2924 30.4023 97.6686 32.8084 96.4295C35.9655 94.7958 38.0873 91.4816 40.6843 87.3017C44.321 81.4457 43.485 74.9107 43.485 74.9107C47.2363 73.1241 49.7994 71.5456 51.17 70.1707V70.107L51.518 69.7548C52.5874 70.8921 53.8731 71.8893 55.3881 72.3433C57.9214 73.1029 60.1026 71.1976 61.9698 69.7888C65.2542 67.3105 68.98 64.5268 71.2546 61.0386C73.2914 57.9197 74.399 53.7865 74.0935 49.9037L74.0977 49.8994Z" fill="#116A7B"/>
<path id="Vector_3" d="M54.2381 78.7935V79.8289H50.4104V82.4047H53.6398V83.4316H50.4104V87.1404H49.1459V78.7977H54.2338L54.2381 78.7935Z" fill="#9B9134"/>
<path id="Vector_4" d="M55.9527 87.1447C55.6854 87.0683 55.4562 86.9538 55.2568 86.801C55.0573 86.6482 54.9003 86.453 54.7815 86.2239C54.6627 85.9947 54.6033 85.7189 54.6033 85.4006C54.6033 85.0824 54.6669 84.8023 54.7985 84.5604C54.93 84.3185 55.104 84.1149 55.3162 83.9536C55.5284 83.7923 55.7745 83.6693 56.0546 83.5844C56.3304 83.4995 56.6189 83.4614 56.9117 83.4614H58.1381V83.177C58.1381 82.7781 58.066 82.4938 57.9217 82.3199C57.7774 82.1459 57.5271 82.0568 57.1706 82.0568H57.1366C56.7802 82.0568 56.4789 82.1459 56.237 82.3241C55.9951 82.5023 55.8084 82.723 55.6811 82.9861L54.7518 82.4005C54.9597 82.0101 55.2653 81.6961 55.6769 81.4542C56.0843 81.2123 56.5638 81.0892 57.1154 81.0892H57.2088C57.5016 81.0892 57.7817 81.1317 58.049 81.2208C58.3163 81.3099 58.5455 81.4372 58.7449 81.6027C58.9444 81.7682 59.1014 81.9761 59.216 82.218C59.3305 82.4599 59.3899 82.74 59.3899 83.0582V87.149H58.1975V86.6228H58.1508C58.0872 86.7331 58.0023 86.8307 57.9005 86.9156C57.7944 87.0004 57.6841 87.0683 57.5652 87.1193C57.4464 87.1702 57.3276 87.2084 57.2088 87.2338C57.09 87.2593 56.9839 87.2678 56.8863 87.2678H56.7929C56.5001 87.2678 56.22 87.2296 55.9527 87.1532V87.1447ZM57.3488 86.2154C57.5058 86.1645 57.6416 86.0881 57.7604 85.982C57.8793 85.8802 57.9726 85.7529 58.0405 85.6001C58.1084 85.4473 58.1424 85.2776 58.1424 85.0866V84.4204H56.9372C56.602 84.4204 56.3389 84.4968 56.1437 84.6538C55.9485 84.8108 55.8509 85.0654 55.8509 85.4219C55.8509 85.7783 55.9357 86.0032 56.1012 86.1178C56.2667 86.2324 56.5044 86.2918 56.8184 86.2918H56.8523C57.0263 86.2918 57.1918 86.2663 57.3488 86.2154Z" fill="#9B9134"/>
<path id="Vector_5" d="M61.4225 86.7458C61.1467 86.4063 61.0109 85.9141 61.0109 85.2818V82.2434H60.4041V81.208H61.0109V79.3961H62.2033V81.208H63.0605V82.2434H62.2033V85.1757C62.2033 85.5661 62.2457 85.8504 62.3349 86.0287C62.4197 86.2069 62.564 86.296 62.7634 86.296H62.7974C62.9162 86.296 63.0308 86.2705 63.1411 86.2239C63.2514 86.1772 63.349 86.1305 63.4254 86.0796L63.9134 86.975C63.7479 87.0556 63.5697 87.1235 63.383 87.1787C63.1963 87.2338 63.0053 87.2635 62.8186 87.2635H62.7253C62.1312 87.2635 61.6941 87.0938 61.4183 86.7501L61.4225 86.7458Z" fill="#9B9134"/>
<path id="Vector_6" d="M65.0592 87.1447C64.7919 87.0683 64.5627 86.9538 64.3633 86.801C64.1638 86.6482 64.0068 86.453 63.888 86.2239C63.7692 85.9947 63.7098 85.7189 63.7098 85.4006C63.7098 85.0824 63.7734 84.8023 63.905 84.5604C64.0365 84.3185 64.2105 84.1149 64.4227 83.9536C64.6349 83.7923 64.881 83.6693 65.1611 83.5844C65.4369 83.4995 65.7254 83.4614 66.0182 83.4614H67.2446V83.177C67.2446 82.7781 67.1725 82.4938 67.0282 82.3199C66.8839 82.1459 66.6336 82.0568 66.2771 82.0568H66.2431C65.8867 82.0568 65.5854 82.1459 65.3435 82.3241C65.1016 82.5023 64.9149 82.723 64.7876 82.9861L63.8583 82.4005C64.0662 82.0101 64.3718 81.6961 64.7834 81.4542C65.1908 81.2123 65.6703 81.0892 66.2219 81.0892H66.3153C66.6081 81.0892 66.8882 81.1317 67.1555 81.2208C67.4228 81.3099 67.652 81.4372 67.8514 81.6027C68.0509 81.7682 68.2079 81.9761 68.3225 82.218C68.437 82.4599 68.4965 82.74 68.4965 83.0582V87.149H67.304V86.6228H67.2574C67.1937 86.7331 67.1088 86.8307 67.007 86.9156C66.9009 87.0004 66.7906 87.0683 66.6717 87.1193C66.5529 87.1702 66.4341 87.2084 66.3153 87.2338C66.1965 87.2593 66.0904 87.2678 65.9928 87.2678H65.8994C65.6066 87.2678 65.3266 87.2296 65.0592 87.1532V87.1447ZM66.4553 86.2154C66.6123 86.1645 66.7481 86.0881 66.8669 85.982C66.9858 85.8802 67.0791 85.7529 67.147 85.6001C67.2149 85.4473 67.2489 85.2776 67.2489 85.0866V84.4204H66.0437C65.7085 84.4204 65.4454 84.4968 65.2502 84.6538C65.055 84.8108 64.9574 85.0654 64.9574 85.4219C64.9574 85.7783 65.0422 86.0032 65.2077 86.1178C65.3732 86.2324 65.6109 86.2918 65.9249 86.2918H65.9588C66.1328 86.2918 66.2983 86.2663 66.4553 86.2154Z" fill="#9B9134"/>
<path id="Vector_7" d="M70.911 87.1447C70.6437 87.0683 70.4145 86.9538 70.2151 86.801C70.0156 86.6482 69.8586 86.453 69.7398 86.2239C69.621 85.9947 69.5616 85.7189 69.5616 85.4006C69.5616 85.0824 69.6252 84.8023 69.7568 84.5604C69.8883 84.3185 70.0623 84.1149 70.2745 83.9536C70.4867 83.7923 70.7328 83.6693 71.0129 83.5844C71.2887 83.4995 71.5773 83.4614 71.8701 83.4614H73.0964V83.177C73.0964 82.7781 73.0243 82.4938 72.88 82.3199C72.7357 82.1459 72.4854 82.0568 72.1289 82.0568H72.095C71.7385 82.0568 71.4372 82.1459 71.1953 82.3241C70.9535 82.5023 70.7667 82.723 70.6394 82.9861L69.7101 82.4005C69.918 82.0101 70.2236 81.6961 70.6352 81.4542C71.0426 81.2123 71.5221 81.0892 72.0737 81.0892H72.1671C72.4599 81.0892 72.74 81.1317 73.0073 81.2208C73.2747 81.3099 73.5038 81.4372 73.7032 81.6027C73.9027 81.7682 74.0597 81.9761 74.1743 82.218C74.2889 82.4599 74.3483 82.74 74.3483 83.0582V87.149H73.1558V86.6228H73.1092C73.0455 86.7331 72.9606 86.8307 72.8588 86.9156C72.7527 87.0004 72.6424 87.0683 72.5236 87.1193C72.4047 87.1702 72.2859 87.2084 72.1671 87.2338C72.0483 87.2593 71.9422 87.2678 71.8446 87.2678H71.7512C71.4584 87.2678 71.1784 87.2296 70.911 87.1532V87.1447ZM72.3071 86.2154C72.4641 86.1645 72.5999 86.0881 72.7188 85.982C72.8376 85.8802 72.9309 85.7529 72.9988 85.6001C73.0667 85.4473 73.1007 85.2776 73.1007 85.0866V84.4204H71.8955C71.5603 84.4204 71.2972 84.4968 71.102 84.6538C70.9068 84.8108 70.8092 85.0654 70.8092 85.4219C70.8092 85.7783 70.894 86.0032 71.0595 86.1178C71.225 86.2324 71.4627 86.2918 71.7767 86.2918H71.8106C71.9846 86.2918 72.1501 86.2663 72.3071 86.2154Z" fill="#9B9134"/>
<path id="Vector_8" d="M76.3766 81.1996C76.5336 81.7724 76.6864 82.3241 76.8307 82.8545C76.8858 83.0837 76.9495 83.3213 77.0174 83.559C77.0853 83.7966 77.1489 84.03 77.2084 84.2634C77.2678 84.4925 77.3229 84.7132 77.3739 84.9169L77.5096 85.4643H77.5351C77.5818 85.3073 77.6369 85.1248 77.7006 84.9169C77.7643 84.7089 77.8322 84.4925 77.9043 84.2634C77.9764 84.0342 78.0486 83.7966 78.1249 83.559C78.2013 83.3213 78.2735 83.0879 78.3456 82.8545C78.5111 82.3241 78.6936 81.7682 78.8845 81.1996H79.6951C79.886 81.7724 80.0642 82.3241 80.2297 82.8545C80.3019 83.0837 80.374 83.3213 80.4504 83.559C80.5268 83.7966 80.5989 84.03 80.6711 84.2634C80.7432 84.4925 80.8111 84.7132 80.8747 84.9169C80.9384 85.1248 80.9936 85.3073 81.0402 85.4643H81.0615L81.1973 84.9169C81.2482 84.7089 81.3076 84.4925 81.3712 84.2634C81.4349 84.0342 81.4985 83.7966 81.5622 83.559C81.6258 83.3213 81.6895 83.0879 81.7532 82.8545C81.8974 82.3241 82.046 81.7682 82.2072 81.1996H83.4124L81.5155 87.1362H80.514C80.3401 86.5718 80.1746 86.0287 80.0133 85.5025C79.9412 85.2818 79.869 85.0527 79.7969 84.815C79.7248 84.5774 79.6569 84.3525 79.5932 84.1318C79.5296 83.9112 79.4701 83.699 79.415 83.4995C79.3598 83.3001 79.3131 83.1261 79.2707 82.9733H79.2495C79.1604 83.2746 79.05 83.6566 78.91 84.1233C78.77 84.5901 78.6342 85.0484 78.4984 85.4982C78.3414 86.0244 78.1759 86.5676 78.0104 87.132H77.0089L75.1121 81.1953H76.3766V81.1996Z" fill="#9B9134"/>
<path id="Vector_9" d="M85.0629 87.1447C84.7955 87.0683 84.5664 86.9538 84.3669 86.801C84.1675 86.6482 84.0105 86.453 83.8917 86.2239C83.7728 85.9947 83.7134 85.7189 83.7134 85.4006C83.7134 85.0824 83.7771 84.8023 83.9086 84.5604C84.0402 84.3185 84.2142 84.1149 84.4263 83.9536C84.6385 83.7923 84.8846 83.6693 85.1647 83.5844C85.4405 83.4995 85.7291 83.4614 86.0219 83.4614H87.2483V83.177C87.2483 82.7781 87.1761 82.4938 87.0319 82.3199C86.8876 82.1459 86.6372 82.0568 86.2808 82.0568H86.2468C85.8904 82.0568 85.5891 82.1459 85.3472 82.3241C85.1053 82.5023 84.9186 82.723 84.7913 82.9861L83.862 82.4005C84.0699 82.0101 84.3754 81.6961 84.787 81.4542C85.1944 81.2123 85.6739 81.0892 86.2256 81.0892H86.319C86.6118 81.0892 86.8918 81.1317 87.1592 81.2208C87.4265 81.3099 87.6557 81.4372 87.8551 81.6027C88.0545 81.7682 88.2116 81.9761 88.3261 82.218C88.4407 82.4599 88.5001 82.74 88.5001 83.0582V87.149H87.3077V86.6228H87.261C87.1974 86.7331 87.1125 86.8307 87.0106 86.9156C86.9046 87.0004 86.7942 87.0683 86.6754 87.1193C86.5566 87.1702 86.4378 87.2084 86.319 87.2338C86.2001 87.2593 86.094 87.2678 85.9964 87.2678H85.9031C85.6103 87.2678 85.3302 87.2296 85.0629 87.1532V87.1447ZM86.459 86.2154C86.616 86.1645 86.7518 86.0881 86.8706 85.982C86.9894 85.8802 87.0828 85.7529 87.1507 85.6001C87.2186 85.4473 87.2525 85.2776 87.2525 85.0866V84.4204H86.0474C85.7121 84.4204 85.449 84.4968 85.2538 84.6538C85.0586 84.8108 84.961 85.0654 84.961 85.4219C84.961 85.7783 85.0459 86.0032 85.2114 86.1178C85.3769 86.2324 85.6145 86.2918 85.9286 86.2918H85.9625C86.1365 86.2918 86.302 86.2663 86.459 86.2154Z" fill="#9B9134"/>
<path id="Vector_10" d="M70.6947 31.1771C70.3086 30.0441 68.9888 29.2251 66.7313 28.7159C65.8826 30.9352 65.2503 32.6369 64.8387 33.8208C66.2178 34.7162 67.4866 35.4503 68.6409 36.0274C69.5065 34.8944 70.1898 33.2776 70.6947 31.1771Z" fill="#116A7B"/>
<path id="Vector_11" d="M58.3205 50.154C57.9343 49.021 56.6146 48.202 54.357 47.6928C53.5083 49.9122 52.876 51.6138 52.4644 52.7978C53.8436 53.6931 55.1124 54.4273 56.2666 55.0044C57.1323 53.8714 57.8155 52.2546 58.3205 50.154Z" fill="#116A7B"/>
<path id="Vector_12" d="M58.3205 42.7279C57.9343 41.5949 56.6146 40.7759 54.357 40.2667C53.5083 42.486 52.876 44.1877 52.4644 45.3716C53.8436 46.267 55.1124 47.0011 56.2666 47.5782C57.1323 46.4452 57.8155 44.8284 58.3205 42.7279Z" fill="#116A7B"/>
<path id="Vector_13" d="M13.9332 18.0519C14.9474 17.042 16.0719 16.4691 17.3025 16.3375C18.6944 16.1805 19.8783 16.5879 20.8501 17.5639C23.8757 20.6065 21.8431 25.652 14.7521 32.709C10.6572 36.7828 7.14778 39.5368 4.21552 40.9711L12.1594 31.245C16.1101 25.9321 17.5359 22.7283 16.4453 21.6292C15.8003 20.9799 14.1496 20.7975 11.4846 21.0733C12.1976 19.9827 13.0166 18.9727 13.9374 18.0519H13.9332Z" fill="#9B9134"/>
<path id="Vector_14" d="M23.9394 0C22.119 4.12469 22.9337 8.73314 24.9536 12.5481C27.0075 16.3969 30.258 19.2952 33.6231 22.0832C40.1921 27.3791 47.4145 33.3031 47.72 42.52C47.9025 46.4028 47.0071 50.2644 45.7214 53.8926C44.7029 56.7485 43.3747 59.4516 41.6433 61.951C41.9149 60.453 42.2968 59.006 42.6872 57.5759C44.1343 52.4286 45.6959 47.0266 44.7878 41.7095C43.0395 30.7527 31.7008 25.7878 25.7472 17.2965C22.242 12.4547 20.5064 5.31287 23.9352 0.00424351L23.9394 0Z" fill="#116A7B"/>
</g>
</svg>
