<svg width="46" height="46" viewBox="0 0 46 46" fill="none" xmlns="http://www.w3.org/2000/svg">
<g id="magnifying-glass 1" clip-path="url(#clip0_50_1111)">
<g id="Layer 2">
<g id="magnifyne_glass">
<path id="background" d="M23.0001 46C35.7027 46 46.0001 35.7025 46.0001 23C46.0001 10.2975 35.7027 0 23.0001 0C10.2976 0 0.00012207 10.2975 0.00012207 23C0.00012207 35.7025 10.2976 46 23.0001 46Z" fill="#9B9134"/>
<path id="Vector" d="M27.4752 13.3481C26.1613 12.0347 24.5071 11.1137 22.6985 10.6887C20.89 10.2637 18.9987 10.3514 17.2373 10.942C15.4758 11.5326 13.914 12.6027 12.7272 14.032C11.5404 15.4614 10.7757 17.1934 10.5191 19.0334C10.2624 20.8734 10.524 22.7486 11.2743 24.4481C12.0246 26.1477 13.234 27.6043 14.7666 28.6544C16.2992 29.7045 18.0943 30.3064 19.9501 30.3925C21.806 30.4785 23.649 30.0454 25.2723 29.1417L30.9064 34.7767C31.4196 35.29 32.1157 35.5783 32.8416 35.5783C33.5675 35.5783 34.2636 35.29 34.7768 34.7767C35.2901 34.2635 35.5784 33.5673 35.5784 32.8415C35.5784 32.1156 35.2901 31.4195 34.7768 30.9062L29.1418 25.2712C30.1979 23.3728 30.6064 21.182 30.3057 19.0305C30.005 16.879 29.0113 14.8842 27.4752 13.3481ZM24.5275 24.5273C23.7128 25.3417 22.675 25.8962 21.5452 26.1208C20.4154 26.3454 19.2443 26.2299 18.1802 25.789C17.116 25.3481 16.2064 24.6015 15.5665 23.6437C14.9266 22.6859 14.585 21.5599 14.585 20.408C14.585 19.2561 14.9266 18.1301 15.5665 17.1723C16.2064 16.2145 17.116 15.4679 18.1802 15.027C19.2443 14.5861 20.4154 14.4706 21.5452 14.6952C22.675 14.9198 23.7128 15.4743 24.5275 16.2887C25.618 17.3822 26.2305 18.8636 26.2305 20.408C26.2305 21.9524 25.618 23.4338 24.5275 24.5273Z" fill="url(#paint0_linear_50_1111)"/>
</g>
</g>
</g>
<defs>
<linearGradient id="paint0_linear_50_1111" x1="23.0009" y1="35.5783" x2="23.0009" y2="10.4237" gradientUnits="userSpaceOnUse">
<stop stop-color="#F5F2CE"/>
<stop offset="0.9973" stop-color="#F0FFF4"/>
</linearGradient>
<clipPath id="clip0_50_1111">
<rect width="46" height="46" fill="white"/>
</clipPath>
</defs>
</svg>
