<svg width="45" height="45" viewBox="0 0 45 45" fill="none" xmlns="http://www.w3.org/2000/svg">
<g id="question (1) 1">
<path id="Vector" d="M31.487 40.6987L26.4132 35.625H13.1251C10.5404 35.625 8.43762 33.5222 8.43762 30.9375V14.0625C8.43762 11.4778 10.5404 9.375 13.1251 9.375H37.5001C40.0848 9.375 42.1876 11.4778 42.1876 14.0625V30.9375C42.1876 33.5222 40.0848 35.625 37.5001 35.625H34.6876V39.3731C34.6876 40.1344 34.2339 40.8141 33.5307 41.1056C33.2973 41.2022 33.0526 41.2491 32.8107 41.2491C32.3232 41.2491 31.847 41.0578 31.487 40.6987Z" fill="#2190A5"/>
<path id="Vector_2" d="M12.1895 35.6241C11.9476 35.6241 11.7029 35.5772 11.4695 35.4806C10.7664 35.1891 10.3126 34.5094 10.3126 33.7481V30H7.50012C4.91543 30 2.81262 27.8972 2.81262 25.3125V8.4375C2.81262 5.85281 4.91543 3.75 7.50012 3.75H31.8751C34.4598 3.75 36.5626 5.85281 36.5626 8.4375V25.3125C36.5626 27.8972 34.4598 30 31.8751 30H18.587L13.5132 35.0737C13.1532 35.4328 12.6761 35.6241 12.1895 35.6241Z" fill="#2D9FB5"/>
<path id="Vector_3" d="M19.6876 20.625C19.1692 20.625 18.7501 20.205 18.7501 19.6875V18.9656C18.7501 17.6034 19.5236 16.3641 20.8201 15.6506C21.7436 15.1397 22.2067 14.0859 21.9704 13.0303C21.7792 12.195 21.0873 11.5022 20.2482 11.3109C19.5836 11.1581 18.9161 11.2819 18.3704 11.6569C17.8286 12.0291 17.4648 12.6131 17.3729 13.2581C17.2989 13.77 16.8357 14.1291 16.3107 14.0531C15.7989 13.9791 15.4426 13.5047 15.5157 12.9919C15.6836 11.8294 16.3361 10.7794 17.3082 10.1119C18.2907 9.43782 19.4851 9.21657 20.6645 9.48282C22.2142 9.8372 23.4451 11.0672 23.7986 12.6169C24.2204 14.4956 23.3879 16.3725 21.7267 17.2922C21.0367 17.6719 20.6251 18.2972 20.6251 18.9656V19.6875C20.6251 20.205 20.2061 20.625 19.6876 20.625Z" fill="url(#paint0_linear_41_350)"/>
<path id="Vector_4" d="M19.6876 24.375C20.2054 24.375 20.6251 23.9553 20.6251 23.4375C20.6251 22.9197 20.2054 22.5 19.6876 22.5C19.1699 22.5 18.7501 22.9197 18.7501 23.4375C18.7501 23.9553 19.1699 24.375 19.6876 24.375Z" fill="url(#paint1_linear_41_350)"/>
</g>
<defs>
<linearGradient id="paint0_linear_41_350" x1="15.7951" y1="10.4184" x2="26.8932" y2="21.5166" gradientUnits="userSpaceOnUse">
<stop stop-color="white"/>
<stop offset="1" stop-color="#DADFE0"/>
</linearGradient>
<linearGradient id="paint1_linear_41_350" x1="11.2323" y1="14.9822" x2="22.3295" y2="26.0794" gradientUnits="userSpaceOnUse">
<stop stop-color="white"/>
<stop offset="1" stop-color="#DADFE0"/>
</linearGradient>
</defs>
</svg>
