<svg width="107" height="106" viewBox="0 0 107 106" fill="none" xmlns="http://www.w3.org/2000/svg">
<g id="Shape-498">
<path id="Vector" d="M106.5 53.002C106.5 52.4646 106.287 51.9493 105.908 51.5702L92.5734 38.2324C92.647 38.0006 92.6875 37.7614 92.6765 37.5185V15.8479C92.6765 14.7291 91.7711 13.8237 90.6522 13.8237L68.9487 13.8237C68.7132 13.8127 68.485 13.8533 68.2642 13.9269L54.93 0.592678C54.5361 0.198873 54.0172 0 53.4983 0C52.9794 0 52.4604 0.198873 52.0666 0.592678L38.7251 13.9342C38.4969 13.8643 38.2613 13.8237 38.0184 13.8237L16.348 13.8237C15.2292 13.8237 14.3238 14.7291 14.3238 15.8479L14.3238 37.5515C14.3164 37.7834 14.3606 38.0115 14.4305 38.2287L1.09267 51.5666C0.713582 51.9457 0.500122 52.4608 0.500122 52.9982C0.500122 53.5355 0.713582 54.0508 1.09267 54.4299L14.4305 67.7679C14.368 67.9629 14.3238 68.169 14.3238 68.3898L14.3238 90.0932C14.3091 90.6416 14.5152 91.1828 14.9163 91.5839C15.3028 91.9704 15.8217 92.1764 16.348 92.1764C16.3775 92.1764 16.4069 92.1764 16.44 92.1764H38.1104C38.3276 92.1764 38.5337 92.1322 38.7287 92.0697L52.0666 105.408C52.4604 105.801 52.9794 106 53.4983 106C54.0172 106 54.5325 105.801 54.93 105.408L68.2679 92.0697C68.4629 92.1322 68.669 92.1764 68.8862 92.1764H90.5565C90.586 92.1764 90.6191 92.1764 90.6485 92.1764C91.1748 92.1764 91.6938 91.9704 92.0802 91.5839C92.4888 91.1717 92.6949 90.6159 92.6728 90.0602V68.3898C92.6728 68.1727 92.6286 67.9666 92.566 67.7679L105.904 54.4299C106.283 54.0508 106.496 53.5355 106.496 52.9982L106.5 53.002ZM54.9336 71.7721C54.1423 70.9809 52.8616 70.9809 52.0703 71.7721L40.1383 83.7041V69.4828L53.5019 56.1192L66.8656 69.4828V83.7041L54.9336 71.7721ZM53.5019 4.8913L66.0265 17.4159L53.5019 29.9403L40.9775 17.4159L53.5019 4.8913ZM52.0703 34.2318C52.4641 34.6256 52.983 34.8243 53.5019 34.8243C54.0209 34.8243 54.5361 34.6256 54.9336 34.2318L66.8656 22.2998V36.5209L53.5019 49.8846L40.1383 36.5209V22.2998L52.0703 34.2318ZM72.2721 54.4337L84.2041 66.3656H69.9829L56.6193 53.002L69.9829 39.6383H84.2041L72.2721 51.5702C71.893 51.9493 71.6796 52.4646 71.6796 53.002C71.6796 53.5393 71.893 54.0546 72.2721 54.4337ZM34.7354 51.5702L22.8035 39.6383H37.0247L50.3883 53.002L37.0247 66.3656H22.8035L34.7354 54.4337C35.1145 54.0546 35.328 53.5393 35.328 53.002C35.328 52.4646 35.1145 51.9493 34.7354 51.5702ZM17.9196 40.4774L30.4441 53.002L17.9196 65.5264L5.39507 53.002L17.9196 40.4774ZM89.0954 65.5228L76.5709 52.9982L89.0954 40.4738L101.62 52.9982L89.0954 65.5228ZM70.9214 17.8722L88.6317 17.8722V35.5825H70.9214V17.8722ZM18.3833 17.8722L36.0935 17.8722L36.0935 35.5825L18.3833 35.5825L18.3833 17.8722ZM36.0935 88.1244H18.3833L18.3833 70.4141H36.0935V88.1244ZM40.9848 88.5844L53.5093 76.0598L66.0338 88.5844L53.5093 101.109L40.9848 88.5844ZM88.6353 88.1244H70.9251V70.4141H88.6353V88.1244Z" fill="#116A7B"/>
</g>
</svg>
