<svg width="151" height="150" viewBox="0 0 151 150" fill="none" xmlns="http://www.w3.org/2000/svg">
<g id="Shape-498">
<path id="Vector" d="M150.5 75.0028C150.5 74.2424 150.198 73.5132 149.662 72.9767L130.792 54.1025C130.897 53.7744 130.954 53.4359 130.938 53.0922V22.4263C130.938 20.8431 129.657 19.5619 128.074 19.5619L97.3614 19.5619C97.028 19.5462 96.7051 19.6037 96.3927 19.7078L77.5235 0.838696C76.9662 0.281423 76.2319 0 75.4975 0C74.7632 0 74.0288 0.281423 73.4716 0.838696L54.592 19.7183C54.2691 19.6193 53.9358 19.5619 53.592 19.5619L22.9264 19.5619C21.3431 19.5619 20.0619 20.8431 20.0619 22.4263L20.0619 53.1389C20.0515 53.4671 20.114 53.7899 20.213 54.0972L1.33863 72.9716C0.802187 73.5081 0.500122 74.237 0.500122 74.9974C0.500122 75.7578 0.802187 76.487 1.33863 77.0235L20.213 95.8979C20.1244 96.174 20.0619 96.4656 20.0619 96.7781L20.0619 127.49C20.0411 128.266 20.3327 129.032 20.9004 129.6C21.4473 130.147 22.1816 130.438 22.9264 130.438C22.9681 130.438 23.0097 130.438 23.0566 130.438H53.7222C54.0295 130.438 54.3212 130.376 54.5972 130.287L73.4716 149.162C74.0288 149.719 74.7632 150 75.4975 150C76.2319 150 76.961 149.719 77.5235 149.162L96.3979 130.287C96.6739 130.376 96.9655 130.438 97.2728 130.438H127.938C127.98 130.438 128.027 130.438 128.069 130.438C128.813 130.438 129.548 130.147 130.095 129.6C130.673 129.017 130.964 128.23 130.933 127.444V96.7781C130.933 96.4708 130.871 96.1792 130.782 95.8979L149.656 77.0235C150.193 76.487 150.495 75.7578 150.495 74.9974L150.5 75.0028ZM77.5287 101.564C76.4089 100.445 74.5965 100.445 73.4768 101.564L56.5919 118.449L56.5919 98.3248L75.5027 79.4139L94.4135 98.3248V118.449L77.5287 101.564ZM75.5027 6.92166L93.2261 24.6452L75.5027 42.3684L57.7794 24.6452L75.5027 6.92166ZM73.4768 48.4412C74.034 48.9985 74.7683 49.2796 75.5027 49.2796C76.237 49.2796 76.9662 48.9985 77.5287 48.4412L94.4135 31.5564L94.4135 51.6805L75.5027 70.5914L56.5919 51.6805V31.5564L73.4768 48.4412ZM102.064 77.0288L118.949 93.9136H98.8248L79.914 75.0028L98.8248 56.0919L118.949 56.0919L102.064 72.9767C101.528 73.5132 101.226 74.2424 101.226 75.0028C101.226 75.7632 101.528 76.4924 102.064 77.0288ZM48.9463 72.9767L32.0615 56.0919H52.1858L71.0966 75.0028L52.1858 93.9136L32.0615 93.9136L48.9463 77.0288C49.4828 76.4924 49.7849 75.7632 49.7849 75.0028C49.7849 74.2424 49.4828 73.5132 48.9463 72.9767ZM25.1503 57.2793L42.8737 75.0028L25.1503 92.726L7.42693 75.0028L25.1503 57.2793ZM125.871 92.7209L108.147 74.9974L125.871 57.2742L143.594 74.9974L125.871 92.7209ZM100.153 25.2908L125.215 25.2908L125.215 50.3525L100.153 50.3525L100.153 25.2908ZM25.8065 25.2908L50.8682 25.2908V50.3525H25.8065L25.8065 25.2908ZM50.8682 124.704L25.8065 124.704L25.8065 99.6426L50.8682 99.6426L50.8682 124.704ZM57.7898 125.355L75.5131 107.632L93.2365 125.355L75.5131 143.079L57.7898 125.355ZM125.22 124.704H100.158V99.6426H125.22V124.704Z" fill="#9B9134"/>
</g>
</svg>
