<svg width="48" height="48" viewBox="0 0 48 48" fill="none" xmlns="http://www.w3.org/2000/svg">
<g id="thumbs-up 1">
<path id="_x30_5.Love" d="M24.0001 4.79999C13.3969 4.79999 4.80013 13.3968 4.80013 24C4.80013 34.6032 13.3969 43.2 24.0001 43.2C34.6033 43.2 43.2001 34.6032 43.2001 24C43.2001 13.3968 34.6033 4.79999 24.0001 4.79999ZM31.5697 25.8768C30.4273 27.2544 28.7809 28.656 26.8801 30.2784C26.2321 30.8304 25.4929 31.4592 24.7297 32.1264C24.5281 32.304 24.2689 32.4 24.0001 32.4C23.7313 32.4 23.4721 32.304 23.2705 32.1264C22.5073 31.4592 21.7681 30.8304 21.1201 30.2784C19.2193 28.656 17.5729 27.2544 16.4305 25.8768C15.1537 24.336 14.5585 22.872 14.5585 21.2784C14.5585 19.7232 15.0913 18.2928 16.0561 17.2464C17.0353 16.1856 18.3745 15.6 19.8337 15.6C20.9233 15.6 21.9217 15.9456 22.8001 16.6272C23.2465 16.968 23.6449 17.3904 24.0001 17.88C24.3553 17.3904 24.7585 16.968 25.2001 16.6272C26.0785 15.9456 27.0769 15.6 28.1665 15.6C29.6257 15.6 30.9649 16.1856 31.9441 17.2464C32.9089 18.2928 33.4417 19.7232 33.4417 21.2784C33.4417 22.872 32.8465 24.336 31.5697 25.8768Z" fill="#F43756"/>
</g>
</svg>
